<svg id="Warstwa_1" data-name="Warstwa 1" xmlns="http://www.w3.org/2000/svg" viewBox="0 0 175.82 181.89"><defs><style>.cls-1{fill:#e8385d;}.cls-2{fill:#3bc4f0;}</style></defs><title>logo_weddKiT</title><path class="cls-1" d="M54.9,78.79c-.15,1.46-.34,2.71-.39,4-.5,14.38-1,28.77-1.46,43.15a12.22,12.22,0,0,1-4.85,9.59c-11.44,8.92-24.22,11.23-37.77,6C.7,137.77-.59,128.79,7.28,122c8.28-7.2,18.31-8.88,28.91-8.27.6,0,1.19.13,1.79.16a5.55,5.55,0,0,0,1-.28V38.3c1.42.8,2.27,1.21,3,1.72Q74,60.78,105.9,81.51a5.24,5.24,0,0,1,2.67,5.07q0,39.14.15,78.28a12.5,12.5,0,0,1-4.12,9.31c-5.87,5.7-13.19,8.37-21.11,8.91-4.8.33-9.71-.53-14.54-1.1a12.93,12.93,0,0,1-4.42-1.78c-7.68-4.18-8.82-11.55-2.76-17.82a29.87,29.87,0,0,1,16.88-8.46c4.88-.83,9.9-.86,15.26-1.28,0-.52.1-1.48.1-2.43,0-14.6,0-29.19-.06-43.79,0-1.2-.54-2.92-1.42-3.5-12-7.93-24.11-15.71-36.2-23.51A11.57,11.57,0,0,0,54.9,78.79Z" transform="translate(-2.15 -1.26)"/><path class="cls-2" d="M174.88,45.88,151.17,57.67c-11.18,5.54-22.39,11-33.54,16.65a4,4,0,0,1-4.63-.13Q77,50.66,40.88,27.26c-.41-.26-.79-.58-1.48-1.1l20-7.77C74,12.74,88.63,7.06,103.29,1.53a5.15,5.15,0,0,1,4,.33q33,21.29,65.87,42.78C173.61,44.91,174,45.23,174.88,45.88Zm-121.24-18a41.33,41.33,0,0,1,4,2.83c2.12,1.93,4.11,1.89,6.75.78C74.91,27.1,85.52,23,96.07,18.75c5.42-2.17,10.84-4.38,16.28-6.58-3.61-3.82-7.14-4.58-12.09-2.45-11.53,5-23.38,9.2-35.1,13.73ZM68.46,36.4A38.36,38.36,0,0,1,72,38.86c2.41,2.15,4.7,2.29,7.8,1,12.58-5.31,25.31-10.26,38-15.35,3.11-1.25,6.21-2.53,9.43-3.84-3.6-3.57-7-4.78-11.83-2.54-7.67,3.54-15.75,6.22-23.64,9.27Z" transform="translate(-2.15 -1.26)"/><path class="cls-2" d="M177,52.6c-3.59,7.37-3.24,13.83.94,20.29l-62.21,31.42c0-4.86.39-9.24-.1-13.52-.61-5.2,1.24-7.83,6-10.15,17.42-8.46,34.56-17.51,51.81-26.33C174.38,53.86,175.28,53.45,177,52.6Z" transform="translate(-2.15 -1.26)"/></svg>